<svg width="124" height="159" viewBox="0 0 124 159" fill="none" xmlns="http://www.w3.org/2000/svg">
<path d="M62.2653 52.0625H39.6328V82.5725C39.6328 92.565 46.6828 105.772 62.2353 105.845C62.2553 105.845 62.2778 105.845 62.2978 105.845C62.3178 105.845 62.3403 105.845 62.3603 105.845C77.9128 105.772 84.9628 92.565 84.9628 82.5725V52.0625H62.2678H62.2653Z" stroke="white" stroke-width="1.25" stroke-miterlimit="10"/>
<path d="M62.2656 52.0623V19.4648" stroke="white" stroke-width="1.5" stroke-miterlimit="10"/>
<path d="M62.2656 157.436V105.844" stroke="white" stroke-width="1.5" stroke-miterlimit="10"/>
<path d="M1.95703 82.9844H39.122C39.122 82.9844 40.9995 96.8094 48.0645 101.122H5.00453C5.00453 101.122 2.06703 92.1894 1.95953 82.9844H1.95703Z" fill="white"/>
<path d="M11.4453 116.312H62.0503V134.45H23.7403C23.7403 134.45 15.2128 125.865 11.4453 116.312Z" fill="white"/>
<path d="M85.0349 51.4453H122.537C122.537 51.4453 122.565 56.3803 122.565 66.9353H84.9023C84.9023 66.9353 85.0323 61.2578 85.0323 51.4453H85.0349Z" fill="white"/>
<path d="M122.618 30.4794C122.618 30.4794 97.3901 19.1094 62.2451 19.1094C62.2451 27.5419 62.2227 36.0869 62.2227 36.0869H122.618" fill="white"/>
<path d="M62.2646 1.625C62.2646 1.625 62.2546 1.625 62.2496 1.625C62.2446 1.625 62.2396 1.625 62.2346 1.625C27.1621 1.6325 1.34961 12.995 1.34961 12.995L2.09961 80.795C2.09961 87.5025 2.69461 92.915 4.87961 99.255C10.6771 116.072 23.7321 145.677 62.2321 157.438H62.2646C100.765 145.677 113.82 116.07 119.617 99.255C121.802 92.915 122.397 87.5025 122.397 80.795L123.147 12.995C123.147 12.995 97.3346 1.63 62.2621 1.625H62.2646Z" stroke="white" stroke-width="1.5" stroke-miterlimit="10"/>
<path d="M123.15 30.4794C123.15 30.4794 97.3371 19.1144 62.2646 19.1094C62.2646 19.1094 62.2546 19.1094 62.2496 19.1094C62.2446 19.1094 62.2396 19.1094 62.2346 19.1094C27.1621 19.1169 1.34961 30.4794 1.34961 30.4794" stroke="white" stroke-width="1.5" stroke-miterlimit="10"/>
<path d="M84.9609 84.0859H122.616" stroke="white" stroke-width="1.5" stroke-miterlimit="10"/>
<path d="M68.5088 105.153C68.5088 105.153 69.0463 104.011 67.1713 104.973C65.8413 105.658 66.6813 105.861 66.6813 105.861C66.4263 105.998 64.5763 106.791 65.8213 108.078C67.0663 109.366 68.1738 107.313 68.1738 107.443C68.1738 107.443 68.9463 109.126 70.3988 107.838C71.5963 106.776 69.8313 105.691 69.8313 105.691C69.8313 105.691 73.5838 102.716 76.5163 101.328L69.7313 104.241L68.5063 105.156L68.5088 105.153Z" fill="white"/>
<path d="M78.718 80.6806C80.688 79.4456 80.1055 78.1956 80.1055 78.1956C80.068 79.0856 78.178 79.8756 77.7955 79.1631C77.2455 78.1381 78.313 78.2431 78.9905 77.9906C79.638 77.7481 79.768 76.7306 79.768 76.7306C79.768 76.7306 79.0705 77.1356 78.433 77.0456C77.7955 76.9581 77.118 76.2931 77.638 75.7856C79.618 73.8456 78.1155 72.9206 78.1155 72.9206C78.1155 72.9206 78.5405 74.5131 76.9905 74.6556C75.5605 74.7856 76.208 72.4056 77.768 71.5256C78.6805 71.0081 78.678 69.9831 78.483 69.8206C77.8905 70.8406 77.143 70.6631 76.018 71.1556C74.6705 71.7456 74.8405 74.2081 74.8405 74.2081C74.4355 74.2306 74.158 73.9231 73.9755 73.5606C73.723 73.0606 73.6455 72.4531 73.6455 72.4531C71.663 74.8056 75.258 77.1406 75.888 78.9606C76.518 80.7806 74.768 81.6631 74.768 81.6631C74.768 81.6631 74.0505 80.0256 71.823 79.8656C67.3705 79.5481 64.793 80.1431 63.4305 79.3331C60.643 77.6731 62.898 74.2381 64.228 74.0431C65.588 73.8431 66.0305 74.9306 66.0305 74.9306C66.933 74.1506 65.2205 71.7206 65.2205 71.7206C66.183 71.7206 67.558 72.8506 67.558 72.8506C67.4505 71.0631 66.183 70.1906 66.183 70.1906C67.1155 69.8856 68.018 70.5881 68.018 70.5881C67.8205 69.1681 66.918 68.9981 66.353 68.5556C65.788 68.1131 65.1905 66.9356 65.1905 66.3556C65.1905 65.7756 67.138 65.3781 67.138 65.3781C64.868 64.5981 64.388 65.2406 63.8055 65.4231C63.2255 65.6056 61.3305 65.5756 61.238 64.9956C61.1455 64.4156 62.293 62.7031 62.293 62.7031C62.293 62.7031 60.9155 63.8081 59.513 64.7131C58.3105 65.4881 57.0655 66.0706 56.9305 66.1606C56.3605 66.5406 54.4255 66.1206 54.4255 66.1206L55.798 67.5931C55.798 67.5931 54.693 67.6806 54.2055 67.7731C53.7155 67.8656 52.878 68.6256 52.513 68.9456C52.2605 69.1681 51.2005 69.7081 50.658 70.1981C50.443 70.3931 50.5955 70.7106 50.618 70.7981C50.663 70.9706 52.1155 70.8631 52.1155 70.8631C52.1155 70.8631 52.078 71.0806 52.043 71.3831C52.028 71.5081 52.0355 71.5856 52.1055 71.6606C52.2655 71.8306 53.253 71.2406 54.083 71.0531C54.5255 70.9531 54.9255 71.1431 55.1255 71.2281C55.7055 71.4731 54.958 73.1831 54.773 73.2156C54.588 73.2481 52.068 75.6156 51.9455 76.0981C51.823 76.5831 51.4255 77.6456 51.4255 77.6456C51.4255 77.6456 51.1205 78.7306 50.6155 78.7606C50.1105 78.7906 48.293 76.1781 47.8805 76.1156C47.468 76.0531 47.5605 76.1456 47.238 76.1931C46.918 76.2381 44.198 80.8231 44.0605 80.9906C43.923 81.1581 43.968 81.6631 43.878 81.9231C43.788 82.1831 43.1455 83.2331 43.1455 83.2331C43.1455 83.2331 42.3505 84.9081 42.748 84.9481C43.1455 84.9881 44.613 84.0881 44.613 84.0881C44.613 84.0881 44.533 83.7981 44.3705 83.4506C44.208 83.1031 44.533 82.5306 44.533 82.2656C44.533 82.0006 45.1255 81.6531 45.268 81.4081C45.4105 81.1631 45.3305 80.7756 45.3505 80.5506C45.3705 80.3256 47.2105 77.7106 47.6605 77.6081C48.1105 77.5056 49.173 79.3856 49.2755 79.5306C49.378 79.6756 49.7255 80.7956 49.848 81.1431C49.9705 81.4906 50.543 81.5106 51.218 81.7356C51.893 81.9581 51.8305 82.5531 51.873 82.9856C51.913 83.4156 51.0955 83.6781 50.893 83.6781C50.6905 83.6781 47.828 83.7606 47.6855 84.2506C47.543 84.7406 47.8905 91.2806 47.8905 91.2806C47.8905 91.2806 48.5855 92.0781 48.8505 92.0556C49.1155 92.0331 49.648 93.1206 49.873 93.1206C50.098 93.1206 51.243 91.6081 51.243 91.6081C51.243 91.6081 50.118 91.6081 49.7305 91.5456C49.343 91.4831 49.0755 90.4831 48.933 90.2781C48.7905 90.0731 48.8705 86.4781 48.8705 85.7831C48.8705 85.0881 49.463 84.8031 49.933 84.8031C50.403 84.8031 52.2005 85.7431 53.7955 85.7431C55.3905 85.7431 56.533 84.7431 56.533 84.7431C57.228 87.0531 64.6855 86.7656 64.6855 86.7656C64.6855 86.7656 64.6455 87.0306 64.538 88.1556C64.4305 89.2806 65.1355 90.0356 65.398 90.3006C65.6605 90.5656 65.748 91.6706 65.708 91.8956C65.668 92.1206 64.6055 93.2231 64.338 93.6131C64.073 94.0006 60.8855 95.9231 60.598 96.0581C60.313 96.1931 59.5355 97.5781 59.5155 97.7006C59.4955 97.8231 59.188 98.4781 59.3105 98.4981C59.433 98.5181 61.1505 97.8656 61.1505 97.8656C61.1505 97.8656 61.068 97.1906 61.253 96.7631C61.438 96.3356 65.443 94.4531 66.1155 94.0056C66.788 93.5581 67.9555 92.2081 68.0555 92.1056C68.158 92.0031 67.893 91.4306 67.8705 91.2481C67.848 91.0656 67.9105 89.8181 68.5455 89.6956C69.178 89.5731 69.5455 90.5956 70.4455 91.1881C71.3455 91.7806 71.4255 91.3106 72.0805 91.9431C72.7355 92.5756 71.998 93.5156 71.8555 93.5381C71.713 93.5581 71.548 94.4581 71.3655 94.8831C71.1805 95.3081 68.403 98.0531 68.3405 98.0731C68.278 98.0931 68.0755 98.6856 68.0755 98.8781C68.0755 99.0706 66.993 100.156 66.993 100.238C66.993 100.321 66.9305 100.668 66.993 100.768C67.0555 100.871 69.383 100.196 69.383 100.196C69.383 100.196 69.0355 99.1331 69.2805 98.6231C69.5255 98.1131 72.3855 96.6206 72.5305 96.6206C72.6755 96.6206 72.7555 95.9881 73.143 95.1281C73.5305 94.2706 74.9205 92.7781 74.778 92.3906C74.6355 92.0031 73.308 90.2656 73.2455 88.8156C73.183 87.3656 74.163 86.9281 75.0005 85.3156C75.7255 83.9156 75.363 83.0181 75.363 82.7931C75.363 82.5681 76.0605 81.2756 77.348 81.9706C78.6355 82.6656 80.453 82.1581 80.453 82.1581C78.483 81.6106 78.718 80.6881 78.718 80.6881V80.6806ZM60.828 74.3531C59.923 74.2456 60.4005 71.9531 60.4005 70.1481C60.4005 68.3431 58.7505 66.7956 58.7505 66.7956C58.233 66.1006 59.798 66.3881 59.963 66.4731C60.2455 66.6181 61.7705 67.1606 62.023 70.1281C62.2755 73.0956 61.733 74.4606 60.8305 74.3531H60.828Z" fill="white"/>
<path d="M98.0404 112.263C100.205 113.248 101.653 114.97 101.78 117.698C101.78 117.698 96.1754 107.56 72.3154 119.133C72.3154 119.133 75.3879 120.79 73.5629 122.408C71.3479 124.373 70.1679 120.663 70.1679 120.663C70.1679 120.465 68.4779 123.595 66.5804 121.633C64.6829 119.67 67.5004 118.46 67.8904 118.25C67.8904 118.25 65.2629 115.64 67.2904 114.595C70.1479 113.125 70.6754 117.17 70.6754 117.17C70.6754 117.17 72.4554 116.295 75.1679 115.213C75.1679 115.213 73.3079 107.68 78.7029 106.66C78.7029 106.66 75.7679 109.17 77.7729 114.135C79.1604 113.64 80.6779 113.145 82.2529 112.703C82.2529 112.703 81.8679 104.5 88.0829 103.883C88.0829 103.883 84.0429 106.653 84.8954 112.03C86.3079 111.71 87.7729 111.463 89.2179 111.32C89.2179 111.32 90.7729 102.873 95.9504 105.048C95.9504 105.048 92.2354 105.978 91.8804 111.178C93.4504 111.173 94.9504 111.32 96.2879 111.66C96.2879 111.66 98.9329 106.498 102.33 108.928C102.33 108.928 100.385 108.698 98.0329 112.265L98.0404 112.263Z" fill="white"/>
<path d="M45.7969 34.3232C48.6594 35.1132 51.6394 36.4382 51.9769 39.1107C51.9769 39.1107 42.5119 29.6632 11.7119 43.9582C11.7119 43.9582 14.6594 45.9282 12.5444 47.1807C10.2294 48.5532 9.5344 45.3907 9.5344 45.3907C9.5219 45.1982 7.7819 48.3132 6.2044 46.1407C4.7394 44.1207 7.6969 43.6932 8.1869 43.4532C8.1869 43.4532 6.16689 41.2157 7.43189 40.4082C10.1069 38.7007 10.9694 41.9132 10.9694 41.9132C10.9694 41.9132 12.0344 41.2232 14.6569 40.1157C14.6569 40.1157 12.6244 30.5882 20.4369 30.2307C20.4369 30.2307 14.5519 34.1232 17.4569 38.8407C19.2194 38.2382 22.1519 37.1257 24.1619 36.5607C24.1619 36.5607 23.0244 26.9182 30.3969 27.9032C30.3969 27.9032 25.5969 30.4632 27.0369 35.6807C28.8444 35.2482 31.7219 34.6357 33.5844 34.3732C33.5844 34.3732 34.9344 24.7532 42.3994 26.3957C42.3994 26.3957 36.4869 28.6107 36.7719 34.0132C38.8044 33.8782 41.5019 33.6482 43.2519 33.8732C43.2519 33.8732 46.5144 27.2932 51.6444 30.1857C51.6444 30.1857 47.0294 29.6007 45.7969 34.3232Z" fill="white"/>
<path d="M39.7672 68.9879C39.7672 68.9879 30.7721 65.9454 14.1346 76.1954C14.1346 76.1954 17.2547 77.4904 15.6922 79.2804C13.7947 81.4529 11.7547 77.9329 11.7547 77.9329C11.7322 77.7404 9.67715 81.0579 7.93465 79.5254C5.93465 77.7654 9.45965 76.0554 9.80965 75.8079C9.80965 75.8079 7.00965 73.5254 8.82965 72.2804C11.3947 70.5254 12.3497 74.4454 12.3497 74.4454C12.3497 74.4454 13.3672 73.8129 15.4247 72.5329C15.4247 72.5329 12.3546 64.8079 18.0096 63.3254C18.0096 63.3254 15.0746 66.5254 17.5421 71.1904C18.8121 70.5529 19.9572 69.9004 21.4122 69.2954C21.4122 69.2954 19.4096 61.8004 25.7471 60.9929C25.7471 60.9929 21.7596 63.3229 23.8596 68.3479C25.1746 67.8804 26.7947 67.4779 28.1597 67.1804C28.1597 67.1804 27.8197 58.9129 34.6422 59.7829C34.6422 59.7829 30.2947 61.5104 30.6897 66.7504C32.1897 66.5754 35.0172 66.1004 36.3322 66.2904C36.3322 66.2904 38.1146 62.4529 39.7646 62.4879V68.9829L39.7672 68.9879Z" fill="white"/>
<path d="M39.7663 51.7322L39.6313 53.9797C39.6313 53.9797 24.3063 52.5422 12.0338 60.4647C12.0338 60.4647 15.0238 62.0397 13.3038 63.6797C11.2163 65.6697 9.50627 61.9797 9.50627 61.9797C9.50127 61.7847 7.15376 64.9022 5.55876 63.2172C3.72626 61.2822 7.39376 59.8997 7.76376 59.6847C7.76376 59.6847 5.18376 57.1572 7.10876 56.0822C9.82376 54.5672 10.4163 58.5597 10.4163 58.5597C10.4163 58.5597 12.2363 57.5247 14.4013 56.4347C14.4013 56.4347 12.5488 49.4622 18.3138 48.5022C18.3138 48.5022 15.5713 50.4197 16.6338 55.2922C17.9563 54.7722 19.5713 54.2522 21.0763 53.7822C21.0763 53.7822 20.0413 45.6472 26.9838 46.1347C26.9838 46.1347 23.2713 47.5097 23.8513 52.8122C25.2038 52.4647 27.6863 51.9397 29.0738 51.7672C29.0738 51.7672 29.4888 43.5022 36.2038 44.9922C36.2038 44.9922 31.7188 46.3172 31.6313 51.5722C33.4038 51.3772 34.8888 51.2847 37.1038 51.4897C37.1038 51.4897 38.9313 45.4922 44.1638 47.3222C44.1638 47.3222 39.9563 48.2497 39.7663 51.7372V51.7322Z" fill="white"/>
<path d="M90.3691 131.76C91.2366 132.4 92.2416 133.065 92.6216 134.433C92.6216 134.433 84.3166 127.258 71.8641 137.703C71.8641 137.703 75.1941 139.463 73.9866 140.865C72.5216 142.565 70.5616 139.168 70.5616 139.168C70.5416 139.02 68.5241 142.888 66.9741 141.518C65.4141 140.14 68.3366 138.283 68.6066 138.085C68.6066 138.085 65.4391 136.125 66.7941 135.055C68.2766 133.885 70.0641 136.708 70.0641 136.708C70.0641 136.708 71.0741 135.778 72.7041 134.605C72.7041 134.605 69.5691 131.27 72.8116 128.178C72.8116 128.178 71.9691 131.618 74.0491 133.685C74.9391 133.108 75.9391 132.515 77.0141 131.978C77.0141 131.978 75.2916 125.805 80.6141 124.32C80.6141 124.32 77.6041 126 78.6791 131.22C79.9041 130.72 81.1741 130.4 82.4766 130.193C82.4766 130.193 83.1591 124.843 88.5391 124.458C88.5391 124.458 85.6991 126.058 84.4641 130.035C85.7616 130.063 87.0966 130.308 88.3766 130.865C88.3766 130.865 89.7366 126.263 93.7041 127.21C93.7041 127.21 91.1966 128.965 90.3666 131.763L90.3691 131.76Z" fill="white"/>
<path d="M107.021 96.6386C110.504 98.9836 110.391 102.084 110.391 102.084C110.391 102.084 102.724 90.2436 76.6914 101.064L81.2739 96.5061C84.1364 95.7986 85.8689 95.3011 88.4789 94.7961C88.4789 94.7961 88.1339 87.0561 95.9389 87.6936C95.9389 87.6936 91.9689 89.4686 92.1789 94.1811C93.8114 94.0686 95.2964 94.0336 96.6489 94.0661C96.6489 94.0661 98.7639 85.7661 104.826 88.4036C104.826 88.4036 101.634 89.8711 99.5764 94.2561C101.649 94.4861 103.326 95.1536 104.681 95.6811C104.681 95.6811 107.954 90.1311 112.441 93.3836C112.441 93.3836 108.939 93.6586 107.026 96.6386H107.021Z" fill="white"/>
<path d="M17.3975 10.7621L5 14.6321V26.7096L7.92751 25.6596L7.8875 22.3446C7.8825 21.9371 8.145 21.5746 8.5325 21.4521L18.73 18.3121C19.18 18.1696 19.4875 17.7496 19.4875 17.2771V12.2921C19.4875 11.2046 18.43 10.4346 17.395 10.7646L17.3975 10.7621ZM17.15 15.7346C17.15 16.3846 16.725 16.9571 16.105 17.1471L8.53 19.3671C8.1275 19.4896 7.72 19.1896 7.72 18.7671V16.6296C7.72 16.2121 7.9925 15.8446 8.39 15.7221L16.015 13.4521C16.58 13.2771 17.1525 13.6996 17.1525 14.2896V15.7321L17.15 15.7346Z" fill="white"/>
<path d="M34.5083 7.23439L23.8008 9.33939C22.8983 9.49939 22.2383 10.2844 22.2383 11.2019V19.5744C22.2383 20.3644 22.9658 20.9544 23.7383 20.7944L34.3808 18.5719C35.6233 18.3119 36.5133 17.2169 36.5133 15.9494V8.88939C36.5133 7.82939 35.5458 7.03439 34.5058 7.23939L34.5083 7.23439ZM33.8883 15.2319C33.8883 16.0344 33.3258 16.7269 32.5408 16.8894L25.8133 18.2944C25.3233 18.3969 24.8658 18.0244 24.8658 17.5244V12.2344C24.8658 11.6544 25.2808 11.1594 25.8533 11.0569L32.6208 9.72689C33.2783 9.59689 33.8883 10.1019 33.8883 10.7694V15.2319Z" fill="white"/>
<path d="M51.3831 11.9587L51.8431 11.4362C52.3581 10.8512 52.6431 10.0962 52.6431 9.31619V7.58369C52.6431 6.25619 51.5106 5.20869 50.1856 5.31619C48.3631 5.46369 46.1531 5.64119 45.9156 5.66369C45.5031 5.70119 39.2656 6.37119 39.2656 6.37119V17.7912L41.5381 17.5837V14.0087C41.5381 14.0087 48.5731 12.9537 48.9681 13.1812C50.2281 13.9037 50.9531 16.2987 50.9531 16.2987L53.5831 16.2112C52.9681 13.9537 51.3856 11.9587 51.3856 11.9587H51.3831ZM50.1106 9.23119C50.1106 10.1887 49.3781 10.9887 48.4256 11.0712L42.3581 11.7187C41.8256 11.7662 41.3681 11.3462 41.3681 10.8112V9.12119C41.3681 8.58369 41.7756 8.13119 42.3131 8.07869L48.6306 7.47119C49.4256 7.39369 50.1131 8.01619 50.1131 8.81619V9.23119H50.1106Z" fill="white"/>
<path d="M56.6884 13.9364V16.1539H68.7859C69.5034 16.1539 70.0859 15.5714 70.0859 14.8539V10.3289C70.0859 9.77391 69.6359 9.32141 69.0784 9.32141H59.0734C58.9434 9.32141 58.8359 9.2139 58.8359 9.0839V7.32141C58.8359 7.19141 58.9434 7.0839 59.0734 7.0839H70.0059C70.0509 7.0839 70.0859 7.04641 70.0859 7.00391V4.75391H57.9809C57.0709 4.75391 56.3359 5.49141 56.3359 6.39891V10.0764C56.3359 10.9864 57.0734 11.7214 57.9809 11.7214H67.5384C67.7034 11.7214 67.8384 11.8564 67.8384 12.0214V13.6364C67.8384 13.8014 67.7034 13.9364 67.5384 13.9364H56.6884Z" fill="white"/>
<path d="M86.7601 6.38769L75.9326 5.12519C74.4451 4.95769 73.1426 5.87019 73.1426 7.36519V14.6927C73.1426 15.7477 73.9701 16.6177 75.0251 16.6677C76.8901 16.7577 80.0676 17.0527 80.6326 17.1027C84.0876 17.4102 86.7601 17.8752 86.7601 17.8752V15.6527C86.7601 15.6527 81.9651 14.9477 80.8626 14.8702C80.3001 14.8302 77.2951 14.5677 76.1701 14.5027C75.7851 14.4802 75.4851 14.1627 75.4851 13.7752V8.56019C75.4851 7.76019 76.1826 7.38769 76.9801 7.48019L86.7601 8.61519V6.38269V6.38769Z" fill="white"/>
<path d="M89.5098 6.89312V18.3781L91.7173 18.6831V14.8731C91.7173 14.4806 92.0598 14.1756 92.4498 14.2231C93.3873 14.3381 94.9998 14.5506 95.9448 14.7406C96.4898 14.8556 98.9923 15.3181 99.9123 15.5081C100.142 15.5556 100.305 15.7556 100.305 15.9906V20.3606L102.962 20.8856V9.52062L100.305 9.02562V13.1481C100.305 13.3631 100.107 13.5206 99.8972 13.4756C99.0072 13.2781 96.6473 12.8156 95.8123 12.6756C95.1248 12.5631 93.3848 12.2706 92.4098 12.1081C92.0098 12.0406 91.7198 11.6956 91.7198 11.2906V7.20562L89.5123 6.89062L89.5098 6.89312Z" fill="white"/>
<path d="M105.711 10.717V21.407C105.711 21.757 105.943 22.0645 106.278 22.1595C107.928 22.6245 112.636 23.952 113.311 24.1395C114.131 24.367 119.501 26.182 119.501 26.182V23.607C119.501 23.607 113.703 21.8045 113.336 21.6895C113.043 21.5995 109.941 20.6945 108.683 20.3295C108.371 20.2395 108.158 19.9545 108.158 19.6295V18.372C108.158 18.162 108.356 18.012 108.558 18.0695C109.863 18.442 113.946 19.607 114.368 19.742C114.873 19.902 119.503 21.437 119.503 21.437V18.757C119.503 18.757 114.003 17.107 113.681 17.0145C113.403 16.9345 109.498 15.7495 108.428 15.4245C108.268 15.3745 108.158 15.227 108.158 15.0595V13.577C108.158 13.3145 108.411 13.127 108.661 13.1995C109.883 13.562 112.983 14.477 114.023 14.7695C115.328 15.137 119.501 16.4645 119.501 16.4645V14.267L106.196 10.352C105.953 10.2795 105.711 10.462 105.711 10.7145V10.717Z" fill="white"/>
<path d="M47.5645 55.5547H48.7269H49.8869" fill="white"/>
<path d="M47.5645 55.5547H48.7269H49.8869" stroke="white" stroke-width="0.75" stroke-miterlimit="10" stroke-linecap="round"/>
<path d="M48.7266 60.8097V55.5547" stroke="white" stroke-width="0.75" stroke-miterlimit="10" stroke-linecap="round"/>
<path d="M56.252 55.5547H57.412H58.5744" fill="white"/>
<path d="M56.252 55.5547H57.412H58.5744" stroke="white" stroke-width="0.75" stroke-miterlimit="10" stroke-linecap="round"/>
<path d="M57.4121 60.8097V55.5547" stroke="white" stroke-width="0.75" stroke-miterlimit="10" stroke-linecap="round"/>
<path d="M60.3262 55.5547H61.4862H62.6487" fill="white"/>
<path d="M60.3262 55.5547H61.4862H62.6487" stroke="white" stroke-width="0.75" stroke-miterlimit="10" stroke-linecap="round"/>
<path d="M61.4863 60.8097V55.5547" stroke="white" stroke-width="0.75" stroke-miterlimit="10" stroke-linecap="round"/>
<path d="M79.0879 55.5547H80.2504H81.4104" fill="white"/>
<path d="M79.0879 55.5547H80.2504H81.4104" stroke="white" stroke-width="0.75" stroke-miterlimit="10" stroke-linecap="round"/>
<path d="M80.25 60.8097V55.5547" stroke="white" stroke-width="0.75" stroke-miterlimit="10" stroke-linecap="round"/>
<path d="M51.6367 55.5547V59.2572C51.6367 60.1147 52.2767 60.8097 53.0692 60.8097C53.8592 60.8097 54.5017 60.1147 54.5017 59.2572V55.5547" stroke="white" stroke-width="0.75" stroke-miterlimit="10" stroke-linecap="round"/>
<path d="M45.5773 56.2072C45.5773 56.2072 45.1874 55.5547 44.4099 55.5547C43.6324 55.5547 43.0898 55.9822 43.0898 56.8422C43.0898 58.3597 45.8174 57.8922 45.8174 59.4447C45.8174 60.6672 44.7573 60.8122 44.2598 60.8122C43.7623 60.8122 43.3298 60.5147 43.0923 60.0572" stroke="white" stroke-width="0.75" stroke-miterlimit="10" stroke-linecap="round"/>
<path d="M66.0234 58.1822H67.5109C67.5109 58.1822 67.7609 60.8097 66.0234 60.8097C64.6309 60.8097 64.3984 59.2347 64.3984 58.1822C64.3984 57.1297 64.7234 55.5547 65.9559 55.5547C66.7234 55.5547 67.0009 56.1847 67.0009 56.1847" stroke="white" stroke-width="0.75" stroke-miterlimit="10" stroke-linecap="round"/>
<path d="M69.707 59.5078H72.212" stroke="white" stroke-width="0.75" stroke-miterlimit="10" stroke-linecap="round"/>
<path d="M69.2715 60.8079L70.949 55.7779C70.949 55.7779 70.9665 55.7679 70.969 55.7779L72.6465 60.8079" stroke="white" stroke-width="0.75" stroke-miterlimit="10" stroke-linecap="round"/>
<path d="M74.3965 60.8083V55.5508H75.759C76.6315 55.5508 77.339 56.2583 77.339 57.1308C77.339 58.0083 76.624 58.7158 75.7465 58.7108L74.399 58.7008" stroke="white" stroke-width="0.75" stroke-miterlimit="10" stroke-linecap="round"/>
<path d="M75.7441 58.7109L77.3366 60.8084" stroke="white" stroke-width="0.75" stroke-miterlimit="10" stroke-linecap="round"/>
</svg>
