<?xml version="1.0" encoding="UTF-8"?>
<svg xmlns="http://www.w3.org/2000/svg" version="1.1" viewBox="0 0 800 291">
  <defs>
    <style>
      .cls-1, .cls-2 {
        isolation: isolate;
        opacity: .5;
      }

      .cls-3, .cls-2 {
        fill-rule: evenodd;
      }

      .cls-4 {
        display: none;
      }
    </style>
  </defs>
  <!-- Generator: Adobe Illustrator 28.6.0, SVG Export Plug-In . SVG Version: 1.2.0 Build 709)  -->
  <g>
    <g id="Layer_1">
      <g id="Layer_1-2" data-name="Layer_1" class="cls-4">
        <rect class="cls-1" x="72.8" y="145.5" width="72.7" height="72.7"/>
        <path class="cls-2" d="M72.7,72.7h0v72.7h72.7c.1-40.1-32.5-72.7-72.7-72.7Z"/>
        <path class="cls-2" d="M145.5,290.9h0v-72.7h-72.7c0,40.2,32.5,72.7,72.7,72.7Z"/>
        <path class="cls-2" d="M145.5,72.7h0V0h-72.7c0,40.2,32.5,72.7,72.7,72.7Z"/>
        <path class="cls-2" d="M72.7,145.5h0v-72.7H0c0,40.1,32.6,72.7,72.7,72.7Z"/>
        <rect class="cls-1" x="654.5" y="218.2" width="72.7" height="72.7"/>
        <rect class="cls-1" x="581.8" y="218.2" width="72.7" height="72.7"/>
        <rect class="cls-1" x="581.8" y="72.7" width="72.7" height="72.7"/>
        <rect class="cls-1" x="509.1" y="145.5" width="72.7" height="72.7"/>
        <path class="cls-2" d="M727.3,218.2h0v72.7h72.7c0-40.1-32.6-72.7-72.7-72.7Z"/>
        <path class="cls-2" d="M727.3,72.7h-72.7v72.7c40.1.1,72.7-32.5,72.7-72.7Z"/>
        <path class="cls-2" d="M581.8,72.7h0v72.7h-72.7c0-40.1,32.5-72.7,72.7-72.7Z"/>
        <rect class="cls-1" x="363.6" y="218.2" width="72.7" height="72.7"/>
        <rect class="cls-1" x="290.8" y="218.2" width="72.7" height="72.7"/>
        <rect class="cls-1" x="290.8" y="72.7" width="72.7" height="72.7"/>
        <rect class="cls-1" x="218.1" y="145.5" width="72.7" height="72.7"/>
        <path class="cls-2" d="M509,218.2c0,40.2-32.6,72.7-72.7,72.7v-72.7h72.7Z"/>
        <path class="cls-2" d="M436.3,72.7h-72.7v72.7c40.2.1,72.7-32.5,72.7-72.7Z"/>
        <path class="cls-2" d="M290.8,72.7h0v72.7h-72.7c0-40.1,32.6-72.7,72.7-72.7Z"/>
      </g>
      <g id="Layer_2">
        <g>
          <path class="cls-3" d="M0,72.7h72.9c40.1,0,72.6,32.5,72.6,72.6v145.6h0c-40.2,0-72.7-32.6-72.7-72.7v-72.7h0C32.6,145.5,0,112.9,0,72.7h0Z"/>
          <path class="cls-3" d="M145.5,72.7h-.4c-40.2,0-72.7-32.6-72.7-72.7h73.1v72.7Z"/>
        </g>
        <g>
          <path class="cls-3" d="M218.1,218.2v-72.7c0-40.2,32.6-72.8,72.8-72.8h145.5c0,40.2-32.6,72.7-72.7,72.7h-72.8v72.7h-72.8Z"/>
          <path class="cls-3" d="M290.9,218.2v72.7h145.4c40.2,0,72.7-32.6,72.7-72.7h-218.1Z"/>
        </g>
        <g>
          <path class="cls-3" d="M509.1,218.2v-72.7c0-40.2,32.6-72.8,72.8-72.8h145.5c0,40.2-32.6,72.7-72.7,72.7h-72.8v72.7h-72.8Z"/>
          <path class="cls-3" d="M581.8,218.2v72.7h218.2c0-40.2-32.6-72.7-72.7-72.7h-145.5Z"/>
        </g>
      </g>
    </g>
  </g>
</svg>