<?xml version="1.0" encoding="utf-8"?>
<!-- Generator: Adobe Illustrator 28.1.0, SVG Export Plug-In . SVG Version: 6.00 Build 0)  -->
<svg version="1.1" id="Layer_1" xmlns="http://www.w3.org/2000/svg" xmlns:xlink="http://www.w3.org/1999/xlink" x="0px" y="0px"
	 viewBox="0 0 499 62.6" style="enable-background:new 0 0 499 62.6;" xml:space="preserve">
<g>
	<path d="M483.1,13.7V5.1h7.9c1.6,0,2.5,0.9,2.5,2.5v3.7c0,1.6-0.9,2.5-2.5,2.5H483.1z M477.9,27.2h5.1v-8.7h8.6
		c4.4,0,6.8-2.4,6.8-6.8V7.1c0-4.4-2.4-6.8-6.8-6.8h-13.8V27.2z M452,27.2h7.6c4.4,0,6.8-2.4,6.8-6.8v-20h-5.2V20
		c0,1.6-0.9,2.5-2.5,2.5h-6c-1.6,0-2.5-0.9-2.5-2.5V0.3h-5.2v20C445.2,24.8,447.6,27.2,452,27.2L452,27.2z M419.9,22.4
		c-1.6,0-2.5-0.9-2.5-2.5V7.5c0-1.6,0.9-2.5,2.5-2.5h6.4c1.6,0,2.5,0.9,2.5,2.5V20c0,1.6-0.9,2.5-2.5,2.5H419.9z M419.1,27.2h8
		c4.4,0,6.8-2.4,6.8-6.8V7.1c0-4.4-2.4-6.8-6.8-6.8h-8c-4.4,0-6.8,2.4-6.8,6.8v13.2C412.2,24.8,414.7,27.2,419.1,27.2L419.1,27.2z
		 M385.6,12.9V5.1h8.2c1.6,0,2.5,0.9,2.5,2.5v3c0,1.6-0.9,2.4-2.5,2.4H385.6z M380.5,27.2h5.2v-9.5h4.2l6.7,9.5h6.1l-6.8-9.6
		c3.7-0.4,5.7-2.8,5.7-6.8V7.1c0-4.4-2.4-6.8-6.8-6.8h-14.2L380.5,27.2L380.5,27.2z M354.3,27.2h8c4.4,0,6.8-2.4,6.8-6.8v-7.8h-9.8
		v4.8h4.6V20c0,1.6-0.9,2.5-2.5,2.5h-6.5c-1.6,0-2.4-0.9-2.4-2.5V7.5c0-1.6,0.9-2.5,2.4-2.5h6.5c1.6,0,2.5,0.9,2.5,2.5v0.5h5.1V7.1
		c0-4.4-2.4-6.8-6.8-6.8h-8c-4.4,0-6.8,2.4-6.8,6.8v13.2C347.5,24.8,349.9,27.2,354.3,27.2L354.3,27.2z M294,27.2h5.2V9l11.7,18.2
		h5.6V0.3h-5.1v18.2L299.6,0.3h-5.6L294,27.2L294,27.2z M263.6,27.2h18.8v-4.8h-13.6V16h11.9v-4.7h-11.9V5.1h13.6V0.3h-18.8V27.2z
		 M237.4,27.2h8c4.4,0,6.8-2.4,6.8-6.8v-7.8h-9.8v4.8h4.6V20c0,1.6-0.9,2.5-2.5,2.5h-6.4c-1.6,0-2.5-0.9-2.5-2.5V7.5
		c0-1.6,0.9-2.5,2.5-2.5h6.4c1.6,0,2.5,0.9,2.5,2.5v0.5h5.1V7.1c0-4.4-2.4-6.8-6.8-6.8h-8c-4.4,0-6.8,2.4-6.8,6.8v13.2
		C230.6,24.8,233,27.2,237.4,27.2L237.4,27.2z M204.9,17.1l3.8-11.7l3.8,11.7H204.9z M195.9,27.2h5.7l1.8-5.4h10.8l1.8,5.4h5.6
		l-9.1-26.9H205L195.9,27.2z M129,27.2h8.6c3.9,0,6-2.1,6-6v-3.4c0-3.5-1.8-5.2-5.3-5.9l-7.7-1.4c-1.4-0.2-2-0.8-2-1.9V7
		c0-1.2,0.7-1.9,1.9-1.9h5.9c1.2,0,1.9,0.7,1.9,1.9v0.7h5.1V6.3c0-3.9-2.1-5.9-5.9-5.9h-8.2c-3.9,0-6,2.1-6,5.9v3.2
		c0,3.5,1.8,5.3,5.3,5.9l7.7,1.3c1.4,0.2,2.1,0.8,2.1,1.9v1.9c0,1.2-0.7,1.9-1.9,1.9h-6.4c-1.2,0-1.9-0.7-1.9-1.9v-0.9H123v1.6
		C123,25.1,125.2,27.2,129,27.2L129,27.2z M92.7,27.2h5.2V15.9h2.7l8.1,11.3h6.2l-10.1-13.6l9.9-13.3h-6.2l-8,10.9h-2.6V0.3h-5.2
		V27.2z M66.9,27.2h16.6v-4.8H72.1V0.3h-5.2V27.2z M41.5,22.4c-1.6,0-2.4-0.9-2.4-2.5V7.5c0-1.6,0.9-2.5,2.4-2.5h6.5
		c1.6,0,2.5,0.9,2.5,2.5V20c0,1.6-0.9,2.5-2.5,2.5H41.5z M40.7,27.2h8c4.4,0,6.8-2.4,6.8-6.8V7.1c0-4.4-2.4-6.8-6.8-6.8h-8
		c-4.4,0-6.8,2.4-6.8,6.8v13.2C33.9,24.8,36.3,27.2,40.7,27.2L40.7,27.2z M9.6,27.2H17l9.1-26.9h-5.8l-7.1,21.3L6.2,0.3H0.5
		L9.6,27.2L9.6,27.2z M159.6,27.2h6.5l5.2-19.8l5.2,19.8h6.5l7-26.9h-5.5l-4.9,19.9l-5.1-19.9h-6.5L163,20.3l-4.9-19.9h-5.5
		L159.6,27.2L159.6,27.2z"/>
	<g>
		<path d="M493.6,62.3l-1.3-4.4h-6.9l-1.3,4.4h-3.2l4.8-15.2c0.2-0.8,0.8-1.2,1.7-1.2h2.9c0.9,0,1.4,0.4,1.7,1.2l4.8,15.2H493.6z
			 M486.2,55.3h5.3l-2-6.6c0-0.1-0.1-0.1-0.1-0.1h-1.1c0,0-0.1,0-0.1,0.1L486.2,55.3z"/>
		<path d="M474.6,62.3h-3V45.9h3V62.3z"/>
		<path d="M449.9,47.5c0-0.5,0.1-0.9,0.4-1.2c0.3-0.3,0.7-0.4,1.2-0.4h2.6c0.5,0,0.8,0.1,1,0.3c0.2,0.2,0.4,0.4,0.6,0.8l4.6,10.7
			h0.2V45.9h3v16.4h-4l-6-13.8H453c-0.1,0-0.1,0-0.1,0.1v13.6h-3V47.5z"/>
		<path d="M439.7,62.3l-3.5-6h-3v6h-3V45.9h7.1c1.7,0,3,0.5,4,1.4c1,0.9,1.5,2.2,1.5,3.8c0,1.3-0.3,2.4-0.9,3.2
			c-0.6,0.8-1.5,1.4-2.6,1.7l4,6.3H439.7z M433.1,48.5v5.2h3.7c0.9,0,1.6-0.2,2.1-0.7c0.5-0.5,0.7-1.1,0.7-2c0-0.8-0.2-1.4-0.7-1.9
			c-0.5-0.5-1.2-0.7-2.1-0.7H433.1z"/>
		<path d="M415.4,62.3c-1.5,0-2.8-0.4-4-1.1c-1.2-0.7-2.1-1.7-2.7-3c-0.6-1.3-1-2.7-1-4.4c0-1.6,0.3-3.1,1-4.4
			c0.7-1.3,1.6-2.3,2.7-3c1.2-0.7,2.5-1.1,4-1.1c1.5,0,2.8,0.4,4,1.1c1.2,0.7,2.1,1.7,2.7,3c0.7,1.3,1,2.7,1,4.4
			c0,1.6-0.3,3.1-1,4.4c-0.6,1.3-1.5,2.3-2.7,3C418.2,61.9,416.9,62.3,415.4,62.3z M415.4,59.6c1.4,0,2.6-0.5,3.4-1.5
			c0.8-1,1.3-2.4,1.3-4.2c0-1.8-0.4-3.2-1.3-4.2c-0.8-1-2-1.6-3.4-1.6c-1.4,0-2.6,0.5-3.4,1.6c-0.8,1-1.2,2.4-1.2,4.2
			c0,1.8,0.4,3.2,1.2,4.2C412.8,59.1,413.9,59.6,415.4,59.6z"/>
		<path d="M402.1,45.9v2.6h-8V53h7.2v2.6h-7.2v6.7h-3V45.9H402.1z"/>
		<path d="M383.1,62.3h-3V45.9h3V62.3z"/>
		<path d="M367.1,62.3c-1.4,0-2.6-0.4-3.4-1.2c-0.8-0.8-1.2-1.9-1.2-3.4V45.9h3v11.6c0,0.7,0.2,1.2,0.5,1.6c0.4,0.4,0.9,0.5,1.6,0.5
			h5.9v2.7H367.1z"/>
		<path d="M353.4,62.3l-1.3-4.4h-6.9l-1.3,4.4h-3.2l4.8-15.2c0.2-0.8,0.8-1.2,1.7-1.2h2.9c0.9,0,1.4,0.4,1.7,1.2l4.8,15.2H353.4z
			 M346,55.3h5.3l-2-6.6c0-0.1-0.1-0.1-0.1-0.1h-1.1c0,0-0.1,0-0.1,0.1L346,55.3z"/>
		<path d="M328.9,62.3c-1.5,0-2.8-0.4-4-1.1c-1.1-0.7-2-1.7-2.7-3c-0.6-1.3-1-2.7-1-4.4c0-1.6,0.3-3.1,1-4.4c0.6-1.3,1.5-2.3,2.7-3
			c1.2-0.7,2.5-1.1,4-1.1c1.8,0,3.3,0.5,4.5,1.5c1.2,1,2,2.3,2.4,4h-3c-0.3-0.9-0.8-1.6-1.5-2.1c-0.7-0.5-1.5-0.7-2.4-0.7
			c-1.4,0-2.5,0.5-3.4,1.6c-0.8,1-1.2,2.4-1.2,4.2c0,1.8,0.4,3.2,1.2,4.2c0.8,1,1.9,1.5,3.4,1.5c1,0,1.8-0.2,2.5-0.7
			c0.7-0.5,1.1-1.2,1.4-2.2h3c-0.4,1.8-1.1,3.1-2.3,4.1C332.2,61.8,330.7,62.3,328.9,62.3z"/>
		<path d="M302.8,62.3l-3.5-6h-3v6h-3V45.9h7.1c1.7,0,3,0.5,4,1.4c1,0.9,1.5,2.2,1.5,3.8c0,1.3-0.3,2.4-0.9,3.2
			c-0.6,0.8-1.5,1.4-2.6,1.7l4,6.3H302.8z M296.3,48.5v5.2h3.7c0.9,0,1.6-0.2,2.1-0.7c0.5-0.5,0.8-1.1,0.8-2c0-0.8-0.2-1.4-0.8-1.9
			c-0.5-0.5-1.2-0.7-2.1-0.7H296.3z"/>
		<path d="M286.1,48.6H278v4h7.1v2.6H278v2.3c0,0.7,0.2,1.2,0.5,1.6c0.4,0.4,0.9,0.5,1.5,0.5h6v2.7h-6.6c-1.4,0-2.5-0.4-3.3-1.2
			c-0.8-0.8-1.1-1.9-1.1-3.4V45.9h11V48.6z"/>
		<path d="M255.4,45.9h13.3v2.6h-5.1v13.8h-3V48.5h-5.1V45.9z"/>
		<path d="M235.2,47.5c0-0.5,0.1-0.9,0.4-1.2c0.3-0.3,0.7-0.4,1.2-0.4h2.6c0.5,0,0.8,0.1,1,0.3c0.2,0.2,0.4,0.4,0.6,0.8l4.6,10.7
			h0.2V45.9h3v16.4h-4l-6-13.8h-0.6c-0.1,0-0.1,0-0.1,0.1v13.6h-3V47.5z"/>
		<path d="M228,48.6H220v4h7.1v2.6H220v2.3c0,0.7,0.2,1.2,0.5,1.6c0.4,0.4,0.9,0.5,1.5,0.5h6v2.7h-6.6c-1.4,0-2.5-0.4-3.3-1.2
			c-0.8-0.8-1.1-1.9-1.1-3.4V45.9h11V48.6z"/>
		<path d="M203.3,62.3c-1.5,0-2.8-0.4-4-1.1c-1.1-0.7-2-1.7-2.7-3c-0.6-1.3-1-2.7-1-4.4c0-1.6,0.3-3.1,1-4.4c0.6-1.3,1.5-2.3,2.7-3
			c1.2-0.7,2.5-1.1,4-1.1c1.8,0,3.3,0.5,4.5,1.5c1.2,1,2,2.3,2.4,4h-3c-0.3-0.9-0.8-1.6-1.5-2.1c-0.7-0.5-1.5-0.7-2.4-0.7
			c-1.4,0-2.5,0.5-3.4,1.6c-0.8,1-1.2,2.4-1.2,4.2c0,1.8,0.4,3.2,1.2,4.2c0.8,1,1.9,1.5,3.4,1.5c1,0,1.8-0.2,2.5-0.7
			c0.7-0.5,1.1-1.2,1.4-2.2h3c-0.4,1.8-1.1,3.1-2.3,4.1C206.6,61.8,205.1,62.3,203.3,62.3z"/>
		<path d="M166.5,47.5c0-0.5,0.1-0.9,0.4-1.2c0.3-0.3,0.7-0.4,1.2-0.4h2.6c0.5,0,0.8,0.1,1,0.3c0.2,0.2,0.4,0.4,0.6,0.8l4.6,10.7
			h0.2V45.9h3v16.4h-4l-6-13.8h-0.6c-0.1,0-0.1,0-0.1,0.1v13.6h-3V47.5z"/>
		<path d="M151.8,62.3c-1.5,0-2.8-0.4-4-1.1c-1.2-0.7-2.1-1.7-2.7-3c-0.6-1.3-1-2.7-1-4.4c0-1.6,0.3-3.1,1-4.4
			c0.7-1.3,1.6-2.3,2.7-3c1.2-0.7,2.5-1.1,4-1.1c1.5,0,2.8,0.4,4,1.1c1.2,0.7,2.1,1.7,2.7,3c0.7,1.3,1,2.7,1,4.4
			c0,1.6-0.3,3.1-1,4.4c-0.6,1.3-1.5,2.3-2.7,3C154.6,61.9,153.3,62.3,151.8,62.3z M151.8,59.6c1.4,0,2.6-0.5,3.4-1.5
			c0.8-1,1.3-2.4,1.3-4.2c0-1.8-0.4-3.2-1.3-4.2c-0.8-1-2-1.6-3.4-1.6s-2.6,0.5-3.4,1.6c-0.8,1-1.2,2.4-1.2,4.2
			c0,1.8,0.4,3.2,1.2,4.2C149.2,59.1,150.3,59.6,151.8,59.6z"/>
		<path d="M137,62.3h-3V45.9h3V62.3z"/>
		<path d="M114.3,45.9h13.3v2.6h-5.1v13.8h-3V48.5h-5.1V45.9z"/>
		<path d="M108,62.3l-1.3-4.4h-6.9l-1.3,4.4h-3.2l4.8-15.2c0.3-0.8,0.8-1.2,1.7-1.2h2.9c0.9,0,1.4,0.4,1.7,1.2l4.8,15.2H108z
			 M100.6,55.3h5.3l-2-6.6c0-0.1-0.1-0.1-0.1-0.1h-1.1c0,0-0.1,0-0.1,0.1L100.6,55.3z"/>
		<path d="M82.1,62.3c-0.3,0-0.6-0.1-0.9-0.2c-0.2-0.2-0.4-0.4-0.5-0.7l-4.6-15.5h3.2l4,13.6c0,0.1,0.1,0.1,0.1,0.1h0.7
			c0.1,0,0.1,0,0.1-0.1l4-13.6h3.2l-4.7,15.5c-0.2,0.6-0.6,0.9-1.4,0.9H82.1z"/>
		<path d="M63.3,62.3c-1.5,0-2.8-0.4-4-1.1c-1.2-0.7-2.1-1.7-2.7-3c-0.6-1.3-1-2.7-1-4.4c0-1.6,0.3-3.1,1-4.4c0.7-1.3,1.6-2.3,2.7-3
			c1.2-0.7,2.5-1.1,4-1.1c1.5,0,2.8,0.4,4,1.1c1.2,0.7,2.1,1.7,2.7,3c0.7,1.3,1,2.7,1,4.4c0,1.6-0.3,3.1-1,4.4
			c-0.6,1.3-1.5,2.3-2.7,3C66.1,61.9,64.8,62.3,63.3,62.3z M63.3,59.6c1.4,0,2.6-0.5,3.4-1.5c0.8-1,1.3-2.4,1.3-4.2
			c0-1.8-0.4-3.2-1.3-4.2c-0.8-1-2-1.6-3.4-1.6s-2.6,0.5-3.4,1.6c-0.8,1-1.2,2.4-1.2,4.2c0,1.8,0.4,3.2,1.2,4.2
			C60.7,59.1,61.9,59.6,63.3,59.6z"/>
		<path d="M34.9,47.5c0-0.5,0.1-0.9,0.4-1.2c0.3-0.3,0.7-0.4,1.2-0.4h2.6c0.5,0,0.8,0.1,1,0.3c0.2,0.2,0.4,0.4,0.6,0.8l4.6,10.7h0.2
			V45.9h3v16.4h-4l-6-13.8H38c-0.1,0-0.1,0-0.1,0.1v13.6h-3V47.5z"/>
		<path d="M13.2,47.5c0-0.5,0.1-0.9,0.4-1.2c0.3-0.3,0.7-0.4,1.2-0.4h2.6c0.5,0,0.8,0.1,1,0.3c0.2,0.2,0.4,0.4,0.6,0.8l4.6,10.7h0.2
			V45.9h3v16.4h-4l-6-13.8h-0.6c-0.1,0-0.1,0-0.1,0.1v13.6h-3V47.5z"/>
		<path d="M5.2,62.3h-3V45.9h3V62.3z"/>
	</g>
</g>
</svg>
